# xmcd
# 
# Track frame offsets:
#     150
#     46782
#     94371
#     145479
# 
# Disc length: 2559
# 
# Revision: 1
# Processed by: cddbd v1.5.2PL0 Copyright (c) Steve Scherf et al.
# Submitted via: fre:ac v1.0.17
# 
DISCID=3309fd04
DTITLE=Various Artist - Seeing Through Native Eyes
DYEAR=0
DGENRE=
TTITLE0=Jon Young - Learning the Language of the Birds-01
TTITLE1=Jon Young - Learning the Language of the Birds-02
TTITLE2=Jon Young - Learning the Language of the Birds-03
TTITLE3=Jon Young - Learning the Language of the Birds-04
EXTD=
EXTT0=
EXTT1=
EXTT2=
EXTT3=
PLAYORDER=
